<svg width="690" height="735" viewBox="0 0 690 735" fill="none" xmlns="http://www.w3.org/2000/svg">
<g filter="url(#filter0_d)">
<path d="M190.325 620.561H166.92L169.421 619.563C170.455 619.2 171.482 618.855 172.506 618.454C173.582 618.045 174.271 617.562 174.566 616.975C174.899 616.383 175.131 615.793 175.268 615.218C175.425 614.631 175.499 614.021 175.499 613.457C175.499 613.039 175.46 612.545 175.377 612.04C175.302 611.47 175.248 610.982 175.18 610.499L172.152 574.808C171.126 576.601 169.421 579.74 166.993 584.328C164.613 588.859 162.219 593.426 159.842 597.976C157.657 602.226 155.493 606.464 153.319 610.664C152.765 611.753 151.986 613.358 151.025 615.471C149.895 617.916 149.029 619.825 148.464 621.176L144.215 613.062C140.895 606.58 137.659 600.443 134.479 594.671C132.483 591.015 130.184 586.959 127.61 582.485C125.384 578.617 124.279 576.674 124.241 576.609L122.088 606.776C122.088 606.898 122.058 607.729 121.935 609.285C121.821 610.81 121.771 611.816 121.771 612.38C121.771 613.326 121.821 614.202 121.935 615.022C122.067 615.807 122.29 616.495 122.588 617.018C122.893 617.545 123.562 618.028 124.602 618.452C125.659 618.873 126.676 619.285 127.673 619.668L129.797 620.559H110.164L111.451 619.956C112.96 619.307 114.075 618.805 114.783 618.512C116.082 617.896 116.85 617.289 117.16 616.683C117.465 616.085 117.699 614.845 117.894 612.979C118.123 611.083 118.213 609.168 118.213 607.257C118.807 602.186 119.299 596.327 119.713 589.663C120.153 582.983 120.382 577.993 120.382 574.728C120.382 572.581 120.398 570.098 120.454 567.228C120.522 564.351 120.576 562.69 120.576 562.279H124.952C125.376 563.609 125.738 564.704 125.996 565.491C126.44 566.811 126.907 567.999 127.401 569.074C129.086 572.698 131.54 577.533 134.817 583.668C137.657 588.983 140.648 594.382 143.776 599.833C146.672 604.888 148.566 608.037 149.441 609.248C150.448 607.51 152.163 604.39 154.514 599.882C155.654 597.669 157.96 593.202 161.419 586.474C164.032 581.335 166.6 576.409 169.072 571.703C169.812 570.287 170.517 568.768 171.238 567.092C172.068 565.092 172.74 563.468 173.248 562.279H177.364C177.364 564.273 177.45 566.239 177.616 568.181C177.807 570.048 177.991 571.976 178.199 573.935L181.513 611.751C181.627 612.818 181.752 613.775 181.881 614.57C182.045 615.348 182.284 616.046 182.576 616.685C182.915 617.314 184.053 618.028 186.015 618.792C186.906 619.186 187.829 619.52 188.711 619.867L190.325 620.561Z" fill="white"/>
<path d="M253.394 591.083C253.394 600.062 250.352 607.405 244.284 613.152C238.411 618.659 231.154 621.415 222.519 621.415C214.648 621.415 207.96 618.472 202.444 612.578C196.957 606.685 194.229 599.509 194.229 591.083C194.229 582.919 196.996 575.852 202.587 569.979C208.138 564.098 214.828 561.143 222.596 561.143C231.14 561.143 238.287 563.765 244.106 569.018C250.289 574.624 253.394 581.995 253.394 591.083ZM247.191 592.458C247.191 585.184 244.803 578.886 240.039 573.591C235.187 568.225 229.348 565.543 222.518 565.543C215.902 565.543 210.526 568.101 206.353 573.239C202.393 578.102 200.427 584.012 200.427 590.958C200.427 597.638 202.55 603.583 206.807 608.835C211.275 614.342 216.64 617.104 222.921 617.104C229.586 617.104 235.23 614.919 239.876 610.5C244.753 605.835 247.191 599.82 247.191 592.458Z" fill="white"/>
<path d="M319.899 562.28L318.355 563.102C317.862 563.336 316.947 563.674 315.536 564.126C313.134 564.862 311.72 565.485 311.382 565.971C311.063 566.452 310.791 567.576 310.606 569.296C310.415 570.992 310.309 572.263 310.309 573.076V597.729C310.309 606.128 308.086 612.359 303.638 616.497C299.835 619.973 294.734 621.725 288.354 621.725C282.323 621.725 277.408 619.937 273.648 616.333C269.294 612.226 267.12 606.359 267.12 598.677V570.232V569.45C267.12 569.182 267.152 568.87 267.171 568.602C267.171 567.971 267.12 567.428 267.02 566.961C266.926 566.495 266.701 566.043 266.352 565.574C265.992 565.124 264.655 564.485 262.313 563.673C261.787 563.502 260.829 563.229 259.396 562.781L257.674 562.279H283.121L281.519 562.966C281.033 563.171 280.081 563.426 278.691 563.864C276.351 564.527 274.962 565.142 274.539 565.698C274.117 566.281 273.822 566.896 273.72 567.484C273.606 568.057 273.55 568.87 273.55 569.928V598.966C273.55 604.89 274.897 609.393 277.624 612.456C279.978 615.136 283.456 616.833 288.118 617.545C288.755 617.66 289.512 617.717 290.366 617.717C294.593 617.717 298.208 616.119 301.218 612.889C304.392 609.504 305.981 605.155 305.981 599.883V570.543V570.01C305.981 569.041 305.951 568.296 305.867 567.74C305.784 567.201 305.52 566.609 305.084 566.02C304.747 565.611 303.375 564.97 300.984 564.128C299.639 563.662 298.704 563.307 298.151 563.037L296.41 562.282H319.899V562.28Z" fill="white"/>
<path d="M391.113 562.28L389.025 563.173C387.791 563.674 386.909 564.1 386.386 564.354C385.566 564.806 384.938 565.28 384.458 565.798C383.978 566.284 383.686 567.618 383.577 569.817C383.495 571.981 383.417 573.488 383.417 574.299V575.411C383.417 575.658 383.45 575.855 383.469 575.961V620.695H379.847C374.208 614.12 371.179 610.547 370.702 610.016C369.936 609.174 368.703 607.795 366.928 605.888C361.044 599.338 354.985 592.763 348.728 586.091C342.73 579.706 338.415 575.176 335.688 572.471V606.608C335.688 607.262 335.667 607.854 335.636 608.418V610.058C335.636 612.043 335.722 613.549 335.831 614.574C336.014 615.607 336.211 616.384 336.474 616.861C336.718 617.347 337.133 617.797 337.741 618.164C338.368 618.517 339.625 619.083 341.527 619.785L343.624 620.562H324.013L325.281 619.959C326.357 619.456 327.432 618.981 328.472 618.516C329.669 617.899 330.412 617.26 330.752 616.602C331.1 615.908 331.306 614.538 331.351 612.458C331.411 610.36 331.457 608.458 331.457 606.728V562.282H335.796C335.936 562.445 336.41 563.037 337.179 564.078C338.348 565.65 339.535 567.103 340.726 568.42C343.626 571.514 348.586 576.865 355.624 584.549C360.547 589.911 365.487 595.297 370.42 600.647C375.104 605.736 377.927 608.735 378.852 609.612V576.086V573.699C378.852 572.837 378.858 572.018 378.885 571.176C378.885 569.817 378.852 568.685 378.773 567.874C378.718 567.029 378.616 566.433 378.419 566.021C378.108 565.423 377.342 564.808 376.102 564.236C374.568 563.653 373.456 563.184 372.763 562.872L371.502 562.283H391.113V562.28Z" fill="white"/>
<path d="M436.89 578.361L435.482 574.199C435.051 572.826 434.605 571.413 434.177 570.01C433.556 568.418 432.887 567.485 432.213 567.231C431.511 566.938 430.871 566.773 430.251 566.742C429.697 566.716 429.245 566.706 428.931 566.706H428.443H418.553V612.889C418.553 614.219 418.612 615.136 418.742 615.645C418.89 616.184 419.172 616.685 419.518 617.2C419.927 617.703 420.941 618.19 422.589 618.659C425.048 619.379 426.365 619.782 426.517 619.867L428.132 620.561H402.678L404.398 620.046C406.385 619.449 407.722 619.02 408.334 618.809C410.008 618.162 411.003 617.62 411.305 617.202C411.625 616.777 411.848 616.284 411.96 615.733C412.091 615.195 412.173 614.652 412.173 614.105C412.173 613.787 412.142 613.499 412.103 613.258V612.579V566.708L400.49 566.618C400.049 566.618 399.672 566.66 399.37 566.743C399.109 566.8 398.798 566.939 398.472 567.146C397.813 567.578 397.247 568.716 396.784 570.584C396.102 573.283 395.662 574.873 395.473 575.365L394.322 578.11L394.288 560.971L397.432 562.282H432.939L436.818 560.707L436.89 578.361Z" fill="white"/>
<path d="M489.042 620.561H466.822L468.74 619.752C469.734 619.379 470.711 618.98 471.736 618.579C472.93 617.999 473.636 617.373 473.828 616.643C473.938 616.235 473.861 615.533 473.573 614.447C473.422 613.789 473.15 612.917 472.771 611.873L467.674 597.115H449.122L443.814 611.901C443.518 612.82 443.232 613.846 443.003 614.975C442.741 616.05 442.686 616.728 442.741 616.976C442.94 617.521 443.572 618.03 444.586 618.455C445.669 618.876 446.742 619.31 447.766 619.703L449.763 620.561H429.256L430.919 619.897C433.545 618.875 435.082 618.284 435.416 618.115C436.368 617.62 436.968 617.081 437.278 616.515C437.589 615.909 437.89 615.161 438.221 614.276C438.566 613.358 438.77 612.842 438.844 612.712C440.887 607.829 443.275 601.779 445.995 594.607C448.245 588.711 450.348 583.057 452.294 577.599C454.148 572.427 455.301 569.083 455.736 567.578C455.922 566.907 456.152 566.029 456.438 564.94C456.604 564.249 456.809 563.364 457.041 562.283H462.144L463.214 566.439C464.311 569.842 466.042 574.979 468.439 581.921C470.51 587.772 472.771 594.085 475.235 600.829C477.533 607.131 479.029 611.025 479.669 612.549C479.876 613.182 480.176 613.819 480.44 614.498C480.75 615.113 481.072 615.777 481.409 616.483C481.738 617.138 482.849 617.862 484.72 618.662C485.643 619.083 486.522 619.458 487.452 619.827L489.042 620.561ZM465.929 593.064L458.342 572.425L450.72 593.064H465.929Z" fill="white"/>
<path d="M518.195 620.561H492.754L494.481 620.046C496.433 619.441 497.755 619.02 498.43 618.793C500.149 618.162 501.11 617.636 501.414 617.245C501.724 616.808 501.932 616.335 502.037 615.826C502.169 615.311 502.247 614.793 502.247 614.236C502.247 613.881 502.247 613.583 502.209 613.327V612.579V570.241V569.45C502.209 569.174 502.223 568.87 502.247 568.602C502.247 567.971 502.186 567.428 502.084 566.961C501.997 566.495 501.8 566.043 501.414 565.574C501.087 565.124 499.723 564.485 497.393 563.682C496.87 563.503 495.912 563.216 494.482 562.783L492.756 562.28H518.196L516.586 562.945C516.096 563.173 515.167 563.446 513.744 563.864C511.434 564.527 510.042 565.15 509.605 565.687C509.186 566.279 508.92 566.894 508.797 567.482C508.665 568.056 508.619 568.869 508.619 569.927V612.888C508.619 613.927 508.665 614.748 508.797 615.346C508.922 615.962 509.15 616.543 509.579 617.1C510.005 617.666 511.064 618.189 512.699 618.656C515.167 619.41 516.449 619.82 516.587 619.864L518.195 620.561Z" fill="white"/>
<path d="M589.097 562.28L586.988 563.173C585.754 563.674 584.879 564.1 584.345 564.354C583.569 564.806 582.934 565.28 582.435 565.798C581.964 566.284 581.68 567.618 581.574 569.817C581.461 571.981 581.414 573.488 581.414 574.299V575.411C581.414 575.658 581.414 575.855 581.454 575.961V620.695H577.823C572.207 614.12 569.165 610.547 568.705 610.016C567.929 609.174 566.665 607.795 564.912 605.888C559.021 599.338 552.961 592.763 546.682 586.091C540.709 579.706 536.384 575.176 533.679 572.471V606.608C533.679 607.262 533.647 607.854 533.639 608.418V610.058C533.639 612.043 533.688 613.549 533.845 614.574C533.998 615.607 534.202 616.384 534.444 616.861C534.676 617.347 535.104 617.797 535.739 618.164C536.336 618.517 537.598 619.083 539.509 619.785L541.594 620.562H522L523.26 619.959C524.337 619.456 525.412 618.981 526.46 618.516C527.654 617.899 528.394 617.26 528.723 616.602C529.108 615.908 529.3 614.538 529.346 612.458C529.402 610.36 529.425 608.458 529.425 606.728V562.282H533.79C533.93 562.445 534.39 563.037 535.141 564.078C536.312 565.65 537.518 567.103 538.73 568.42C541.594 571.514 546.583 576.865 553.601 584.549C558.523 589.911 563.472 595.297 568.403 600.647C573.095 605.736 575.912 608.735 576.852 609.612V576.086V573.699C576.852 572.837 576.852 572.018 576.862 571.176C576.862 569.817 576.852 568.685 576.772 567.874C576.692 567.029 576.566 566.433 576.387 566.021C576.078 565.423 575.332 564.808 574.104 564.236C572.538 563.653 571.419 563.184 570.75 562.872L569.479 562.283H589.097V562.28Z" fill="white"/>
<path d="M294.17 650.775L292.516 651.397C290.806 651.927 289.549 652.379 288.691 652.706C287.172 653.264 286.218 653.863 285.9 654.501C285.43 655.369 285.127 655.991 284.93 656.36C284.558 657.044 284.267 657.695 284.044 658.338C283.456 659.574 281.938 663.762 279.441 670.92C277.176 677.436 274.897 684.073 272.662 690.851C270.315 697.885 268.892 702.202 268.429 703.744C268.094 704.848 267.809 705.857 267.575 706.758C267.227 708.038 266.954 709.045 266.787 709.816H262.873C262.215 708.192 261.562 706.537 260.935 704.875C259.913 701.531 258.071 696.392 255.453 689.447C253.423 683.989 251 677.706 248.235 670.616C246.267 665.567 244.686 661.633 243.549 658.855C243.313 658.233 243.079 657.584 242.799 656.921C242.516 656.215 242.23 655.576 241.959 654.97C241.67 654.364 240.558 653.661 238.564 652.814C237.328 652.305 236.447 651.879 235.896 651.596L234.386 650.777H256.642L254.703 651.596C253.686 651.929 252.717 652.325 251.729 652.707C250.498 653.266 249.782 653.921 249.592 654.634C249.471 655.033 249.563 655.774 249.846 656.878C250.006 657.526 250.282 658.38 250.657 659.461L265.581 699.015L279.512 659.429C279.815 658.587 280.049 657.684 280.215 656.7C280.432 655.72 280.458 655.095 280.393 654.842C280.215 654.389 279.815 653.938 279.125 653.52C278.459 653.045 277.179 652.424 275.248 651.634L273.242 650.778H294.17V650.775Z" fill="white"/>
<path d="M323.778 709.043H298.311L300.03 708.536C302.03 707.93 303.338 707.526 303.998 707.291C305.7 706.65 306.695 706.119 306.991 705.726C307.288 705.292 307.498 704.841 307.618 704.316C307.732 703.801 307.809 703.266 307.809 702.726C307.809 702.365 307.789 702.071 307.769 701.816V701.071V658.729V657.936C307.769 657.667 307.788 657.37 307.809 657.083C307.809 656.452 307.751 655.922 307.658 655.442C307.568 654.987 307.34 654.537 306.992 654.069C306.644 653.617 305.31 652.96 302.964 652.183C302.455 651.986 301.472 651.71 300.032 651.273L298.313 650.777H323.78L322.166 651.447C321.666 651.659 320.729 651.929 319.338 652.345C316.984 653.018 315.61 653.639 315.177 654.191C314.739 654.782 314.462 655.371 314.359 655.986C314.253 656.551 314.208 657.365 314.208 658.429V701.391C314.208 702.424 314.254 703.237 314.359 703.841C314.462 704.446 314.707 705.047 315.131 705.604C315.593 706.152 316.627 706.685 318.275 707.16C320.727 707.905 322.049 708.317 322.166 708.372L323.778 709.043Z" fill="white"/>
<path d="M367.772 696.309L367.403 709.045H327.534L329.282 708.537C331.251 707.931 332.568 707.513 333.228 707.293C334.94 706.651 335.928 706.128 336.221 705.727C336.548 705.294 336.773 704.8 336.833 704.227C336.953 703.655 337.01 703.031 337.01 702.327V701.073V658.429V657.649C337.01 657.387 337.01 657.143 337.048 656.878C337.048 656.282 336.999 655.774 336.867 655.42C336.81 654.995 336.584 654.578 336.221 654.126C335.89 653.631 334.545 652.96 332.199 652.183C331.683 651.993 330.714 651.71 329.282 651.273L327.534 650.777H365.174L365.14 663.641L364.064 660.547C363.5 658.807 363.166 657.865 363.087 657.698C362.672 656.782 362.152 656.11 361.524 655.661C360.893 655.218 360.219 654.964 359.427 654.842C358.655 654.694 357.79 654.635 356.845 654.635H347.637H346.268C345.614 654.635 345.114 654.679 344.723 654.765C344.412 654.814 344.126 654.97 343.826 655.218C343.683 655.422 343.543 655.72 343.497 656.136C343.458 656.551 343.429 657.004 343.429 657.472V658.431V677.339H354.119C354.425 677.339 354.72 677.364 355.022 677.378H355.964C356.673 677.378 357.244 677.339 357.707 677.25C358.167 677.142 358.602 676.918 359.049 676.569C359.707 676.053 360.219 675.397 360.536 674.585L362.109 671.205V689.753L361.441 687.927C361.052 686.818 360.696 685.687 360.321 684.54C359.867 683.269 359.302 682.442 358.655 682.075C358.004 681.713 357.421 681.474 356.845 681.443C356.293 681.333 355.502 681.296 354.46 681.296H343.429V700.706C343.429 701.514 343.543 702.368 343.72 703.244C343.904 704.071 344.189 704.588 344.617 704.793C345.034 704.981 345.389 705.095 345.684 705.138C346.032 705.18 346.368 705.237 346.741 705.237H347.529C347.832 705.237 348.143 705.211 348.445 705.168H360.784C360.981 705.168 361.253 705.178 361.603 705.237C361.976 705.251 362.261 705.259 362.427 705.259C362.821 705.259 363.072 705.251 363.21 705.237C363.364 705.178 363.624 705.095 363.987 704.918C364.543 704.663 365.035 703.883 365.471 702.58C365.917 701.259 366.334 699.972 366.791 698.705L367.772 696.309Z" fill="white"/>
<path d="M464.868 650.775L463.266 651.397C461.56 651.927 460.272 652.379 459.427 652.706C457.875 653.264 456.921 653.863 456.604 654.501C456.11 655.369 455.813 655.991 455.611 656.36C455.278 657.003 455.004 657.647 454.771 658.338C454.173 659.611 452.705 663.762 450.371 670.77C449.091 674.68 446.974 681.246 444.001 690.515C441.544 698.261 440.17 702.557 439.916 703.414C439.661 704.282 439.463 705.293 439.358 706.472C439.258 707.618 439.161 708.735 439.081 709.816H435.368L433.816 704.875C432.727 701.317 431.236 697.078 429.425 692.162C427.911 688.13 426.185 683.662 424.232 678.675C422.8 675.076 421.661 672.32 420.844 670.417L418.384 664.771L415.75 671.494C415.487 672.206 414.517 675.058 412.873 680.06C411.462 684.416 409.98 688.994 408.44 693.795C406.581 699.582 405.588 702.836 405.355 703.584C405.143 704.335 404.869 705.359 404.583 706.645C404.475 707.032 404.272 708.121 403.872 709.819H400.169L398.699 704.878C397.656 701.534 395.828 696.395 393.21 689.45C391.157 683.992 388.771 677.709 385.992 670.619C384.017 665.57 382.432 661.636 381.304 658.858C381.072 658.236 380.804 657.587 380.583 656.924C380.292 656.218 379.999 655.579 379.707 654.973C379.421 654.367 378.307 653.664 376.319 652.817C375.085 652.308 374.204 651.882 373.634 651.599L372.142 650.78H394.987L393.057 651.599C391.951 651.975 390.893 652.384 389.836 652.775C388.357 653.409 387.537 654.072 387.342 654.766C387.303 655.056 387.265 655.351 387.265 655.629C387.265 656.284 387.318 657.013 387.471 657.832C387.614 658.619 387.792 659.324 388 659.896L402.923 697.081L415.51 660.372L419.326 649.054C419.892 650.957 420.449 652.906 421.032 654.89C421.624 656.848 422.303 658.71 423.029 660.447C424.286 663.422 426.143 668.004 428.6 674.247C431.336 681.108 432.991 685.237 433.567 686.64C435.158 690.516 436.538 693.673 437.716 696.122L450.146 659.273C450.477 658.264 450.76 657.296 450.957 656.404C451.16 655.487 451.203 654.888 451.09 654.634C450.885 654.086 450.206 653.52 449.094 652.96C448.785 652.814 447.768 652.362 445.981 651.632L443.955 650.777H464.868V650.775Z" fill="white"/>
<path d="M479.978 345.389C509.754 332.633 526.182 308.252 527.72 276.687C503.815 329.789 456.027 327.66 414.63 343.467C375.004 358.613 365.149 383.799 362.655 396.103L361.836 397.716C364.91 382.745 376.239 349.044 416.851 330.56C471.163 305.743 492.073 264.572 478.979 220.376C473.77 280.9 427.551 289.648 392.687 320.453C372.696 338.058 364.146 356.598 360.769 371.808L360.664 350.188C365.024 329.158 375.596 304.478 398.781 281.267C456.63 223.619 464.849 161.477 428.832 111.844C448.919 190.936 402.417 214.742 371.939 270.629C367.963 277.901 364.677 285.032 361.96 292.08C362.609 280.112 363.549 267.85 364.912 254.574C387.745 156.855 376.658 64.0875 349.645 35.2025C322.59 64.0875 311.505 156.855 334.38 254.574C335.751 267.85 336.664 280.112 337.341 292.08C334.63 285.032 331.325 277.901 327.375 270.629C296.825 214.742 250.363 190.934 270.455 111.844C234.423 161.478 242.706 223.621 300.442 281.267C323.678 304.48 334.243 329.159 338.61 350.188L338.538 371.808C335.174 356.598 326.574 338.058 306.617 320.453C271.743 289.648 225.523 280.899 220.251 220.376C207.235 264.572 228.118 305.743 282.446 330.56C323.01 349.044 334.327 382.745 337.481 397.716L336.614 396.103C334.123 383.799 324.261 358.615 284.697 343.467C243.273 327.66 195.517 329.789 171.542 276.687C173.086 308.252 189.546 332.633 219.322 345.389C203.133 357.312 192.994 371.809 187.737 393.487C179.831 426.172 201.647 461.439 232.625 470.25C244.983 473.733 257.837 472.022 268.908 465.384C280.05 458.743 291.416 443.481 294.777 430.542C297.533 419.881 296.14 408.756 290.895 399.184C285.664 389.628 277.187 382.745 266.978 379.832C249.585 374.898 229.155 389.988 226.509 408.683C224.66 421.451 228.569 435.359 242.619 443.646C242.619 443.646 231.611 426.658 234.966 411.766C236.228 406.103 239.844 401.482 244.68 398.586C249.472 395.728 255.054 394.965 260.436 396.424C267.434 398.472 273.348 403.276 277.027 409.888C280.655 416.565 281.639 424.32 279.678 431.721C277.185 441.384 267.623 453.356 259.322 458.352C251.062 463.285 241.37 464.601 232.191 461.964C220.25 458.635 210.321 450.555 204.135 439.376C198.041 428.091 198.953 410.819 203.216 398.668C208.815 382.856 216.653 372.338 231.335 365.605C245.873 358.982 260.747 358.31 275.996 362.648C295.517 368.185 311.892 381.245 321.679 394.306C333.551 410.247 348.902 438.228 349.643 459.474V459.629C349.643 459.593 349.659 459.561 349.659 459.545C349.659 459.561 349.659 459.595 349.659 459.629V459.474C350.374 438.228 365.726 410.247 377.622 394.306C387.385 381.243 403.746 368.185 423.277 362.648C438.565 358.31 453.421 358.982 467.923 365.605C482.65 372.34 490.471 382.858 496.008 398.668C500.31 410.818 501.295 428.091 495.093 439.376C488.954 450.555 479.047 458.635 467.105 461.964C457.902 464.601 448.235 463.285 439.936 458.352C431.656 453.356 422.11 441.382 419.598 431.721C417.687 424.318 418.621 416.565 422.235 409.888C425.889 403.276 431.839 398.472 438.861 396.424C444.227 394.965 449.825 395.728 454.648 398.586C459.429 401.482 463.07 406.103 464.334 411.766C467.697 426.658 456.641 443.646 456.641 443.646C470.74 435.359 474.605 421.451 472.776 408.683C470.12 389.988 449.693 374.898 432.303 379.832C422.132 382.745 413.647 389.628 408.385 399.184C403.15 408.756 401.755 419.881 404.521 430.542C407.862 443.483 419.281 458.743 430.328 465.384C441.423 472.021 454.294 473.733 466.657 470.25C497.644 461.441 519.458 426.172 511.542 393.487C506.292 371.809 496.144 357.312 479.978 345.389Z" fill="white"/>
<path d="M327.388 514.565C328.954 513.916 332.371 513.469 336.339 513.469C341.787 513.469 346.204 514.309 346.204 515.35C346.204 516.424 341.787 517.271 336.339 517.271C332.371 517.271 328.954 516.803 327.388 516.169L316.796 517.505L35.1401 516.065L316.796 512.729L327.388 514.565ZM346.675 515.252C346.675 514.516 347.971 513.916 349.611 513.916C351.228 513.916 352.545 514.515 352.545 515.252C352.545 516.015 351.228 516.627 349.611 516.627C347.971 516.629 346.675 516.015 346.675 515.252ZM382.409 517.738L371.833 516.262C370.257 516.942 366.84 517.392 362.91 517.392C357.436 517.392 353.014 516.532 353.014 515.5C353.014 514.447 357.436 513.583 362.91 513.583C366.84 513.583 370.259 514.043 371.833 514.687L382.409 512.952L664.117 516.191L382.409 517.738Z" fill="white"/>
</g>
<defs>
<filter id="filter0_d" x="0.140076" y="0.202454" width="688.977" height="734.617" filterUnits="userSpaceOnUse" color-interpolation-filters="sRGB">
<feFlood flood-opacity="0" result="BackgroundImageFix"/>
<feColorMatrix in="SourceAlpha" type="matrix" values="0 0 0 0 0 0 0 0 0 0 0 0 0 0 0 0 0 0 127 0"/>
<feOffset dx="-5" dy="-5"/>
<feGaussianBlur stdDeviation="15"/>
<feColorMatrix type="matrix" values="0 0 0 0 0 0 0 0 0 0 0 0 0 0 0 0 0 0 1 0"/>
<feBlend mode="normal" in2="BackgroundImageFix" result="effect1_dropShadow"/>
<feBlend mode="normal" in="SourceGraphic" in2="effect1_dropShadow" result="shape"/>
</filter>
</defs>
</svg>
